<mxfile host="Electron" agent="Mozilla/5.0 (Windows NT 10.0; Win64; x64) AppleWebKit/537.36 (KHTML, like Gecko) draw.io/24.7.17 Chrome/128.0.6613.36 Electron/32.0.1 Safari/537.36" version="24.7.17">
  <diagram name="Page-1" id="sZ2jYWhIf5V467-SxP9Y">
    <mxGraphModel dx="1098" dy="828" grid="1" gridSize="10" guides="1" tooltips="1" connect="1" arrows="1" fold="1" page="1" pageScale="1" pageWidth="850" pageHeight="1100" math="0" shadow="0">
      <root>
        <mxCell id="0" />
        <mxCell id="1" parent="0" />
        <mxCell id="SYHLoigSp2c_G1k-SftJ-18" style="edgeStyle=orthogonalEdgeStyle;rounded=0;orthogonalLoop=1;jettySize=auto;html=1;entryX=0.5;entryY=0;entryDx=0;entryDy=0;" edge="1" parent="1" source="SYHLoigSp2c_G1k-SftJ-1" target="SYHLoigSp2c_G1k-SftJ-17">
          <mxGeometry relative="1" as="geometry" />
        </mxCell>
        <mxCell id="SYHLoigSp2c_G1k-SftJ-1" value="START" style="ellipse;whiteSpace=wrap;html=1;" vertex="1" parent="1">
          <mxGeometry x="365" y="170" width="120" height="80" as="geometry" />
        </mxCell>
        <mxCell id="SYHLoigSp2c_G1k-SftJ-14" value="END" style="ellipse;whiteSpace=wrap;html=1;" vertex="1" parent="1">
          <mxGeometry x="365" y="620" width="120" height="80" as="geometry" />
        </mxCell>
        <mxCell id="SYHLoigSp2c_G1k-SftJ-20" style="edgeStyle=orthogonalEdgeStyle;rounded=0;orthogonalLoop=1;jettySize=auto;html=1;entryX=0.5;entryY=0;entryDx=0;entryDy=0;" edge="1" parent="1" source="SYHLoigSp2c_G1k-SftJ-17" target="SYHLoigSp2c_G1k-SftJ-19">
          <mxGeometry relative="1" as="geometry" />
        </mxCell>
        <mxCell id="SYHLoigSp2c_G1k-SftJ-17" value="a,b" style="shape=parallelogram;perimeter=parallelogramPerimeter;whiteSpace=wrap;html=1;fixedSize=1;" vertex="1" parent="1">
          <mxGeometry x="365" y="300" width="120" height="60" as="geometry" />
        </mxCell>
        <mxCell id="SYHLoigSp2c_G1k-SftJ-22" style="edgeStyle=orthogonalEdgeStyle;rounded=0;orthogonalLoop=1;jettySize=auto;html=1;entryX=0.5;entryY=0;entryDx=0;entryDy=0;" edge="1" parent="1" source="SYHLoigSp2c_G1k-SftJ-19" target="SYHLoigSp2c_G1k-SftJ-21">
          <mxGeometry relative="1" as="geometry" />
        </mxCell>
        <mxCell id="SYHLoigSp2c_G1k-SftJ-19" value="a+b=c" style="rounded=0;whiteSpace=wrap;html=1;" vertex="1" parent="1">
          <mxGeometry x="365" y="420" width="120" height="60" as="geometry" />
        </mxCell>
        <mxCell id="SYHLoigSp2c_G1k-SftJ-23" style="edgeStyle=orthogonalEdgeStyle;rounded=0;orthogonalLoop=1;jettySize=auto;html=1;entryX=0.5;entryY=0;entryDx=0;entryDy=0;" edge="1" parent="1" source="SYHLoigSp2c_G1k-SftJ-21" target="SYHLoigSp2c_G1k-SftJ-14">
          <mxGeometry relative="1" as="geometry" />
        </mxCell>
        <mxCell id="SYHLoigSp2c_G1k-SftJ-21" value="c" style="shape=parallelogram;perimeter=parallelogramPerimeter;whiteSpace=wrap;html=1;fixedSize=1;" vertex="1" parent="1">
          <mxGeometry x="365" y="520" width="120" height="60" as="geometry" />
        </mxCell>
      </root>
    </mxGraphModel>
  </diagram>
</mxfile>
